<svg width="40" height="46" viewBox="0 0 40 46" fill="none" xmlns="http://www.w3.org/2000/svg">
<path d="M35.1997 4.50031H21.639L22.8027 3.32531C23.0627 3.04479 23.2008 2.67944 23.1889 2.30429C23.1768 1.92913 23.0156 1.57264 22.7379 1.30799C22.4605 1.04334 22.0879 0.890624 21.6968 0.881201C21.3056 0.871777 20.9256 1.00636 20.6345 1.25731L16.9595 4.78231C16.8169 4.91874 16.7037 5.08082 16.6266 5.25926C16.5494 5.4377 16.5096 5.629 16.5096 5.82219C16.5096 6.01539 16.5494 6.20668 16.6266 6.38511C16.7037 6.56355 16.8169 6.72563 16.9595 6.86206L20.6345 10.3871C20.7772 10.5251 20.947 10.6346 21.1343 10.7093C21.3214 10.7839 21.5221 10.8222 21.7247 10.8218C21.9258 10.8233 22.125 10.7855 22.3104 10.7107C22.4957 10.636 22.6632 10.5259 22.8027 10.3871C22.945 10.2516 23.0578 10.0905 23.1348 9.91308C23.2119 9.73563 23.2515 9.54529 23.2515 9.35306C23.2515 9.16083 23.2119 8.97051 23.1348 8.79304C23.0578 8.61559 22.945 8.45449 22.8027 8.31906L21.835 7.39081H35.1997C35.7673 7.3939 36.3108 7.61153 36.7121 7.99648C37.1135 8.38144 37.3402 8.90267 37.3435 9.44706V37.6001C37.3402 38.1445 37.1135 38.6656 36.7121 39.0506C36.3108 39.4356 35.7673 39.6532 35.1997 39.6563H29.0747C28.6686 39.6563 28.2792 39.8111 27.992 40.0865C27.7049 40.3619 27.5435 40.7355 27.5435 41.1251C27.5435 41.5146 27.7049 41.8882 27.992 42.1636C28.2792 42.439 28.6686 42.5938 29.0747 42.5938H35.1997C36.5795 42.5907 37.9019 42.0636 38.8776 41.1277C39.8532 40.192 40.4027 38.9236 40.406 37.6001V9.49406C40.4027 8.17059 39.8532 6.90222 38.8776 5.96637C37.9019 5.03054 36.5795 4.50341 35.1997 4.50031Z" fill="#1D1C1D"/>
<path d="M20.3285 36.5661C20.0376 36.315 19.6574 36.1805 19.2663 36.1899C18.875 36.1993 18.5025 36.3521 18.225 36.6167C17.9476 36.8814 17.7862 37.2379 17.7742 37.613C17.7621 37.9881 17.9002 38.3535 18.1602 38.6341L19.226 39.6563H5.8C5.23243 39.6532 4.68903 39.4355 4.28769 39.0506C3.88635 38.6656 3.65947 38.1444 3.65625 37.6001V9.49401C3.65947 8.9496 3.88635 8.42837 4.28769 8.04343C4.68903 7.65847 5.23243 7.44084 5.8 7.43776H11.925C12.3311 7.43776 12.7206 7.28301 13.0077 7.00756C13.2949 6.73213 13.4562 6.35854 13.4562 5.96899C13.4562 5.57947 13.2949 5.20588 13.0077 4.93044C12.7206 4.65499 12.3311 4.50024 11.925 4.50024H5.8C4.42021 4.50336 3.09786 5.03048 2.1222 5.96632C1.14653 6.90215 0.596981 8.17053 0.59375 9.49401V37.6001C0.596981 38.9235 1.14653 40.1918 2.1222 41.1277C3.09786 42.0636 4.42021 42.5907 5.8 42.5938H19.275L18.2092 43.6161C17.9976 43.8206 17.8535 44.0805 17.7949 44.3631C17.7361 44.6458 17.7655 44.9387 17.879 45.2055C17.9926 45.4723 18.1855 45.7012 18.4337 45.8635C18.6819 46.026 18.9746 46.1147 19.275 46.1188C19.4761 46.1201 19.6753 46.0824 19.8605 46.0076C20.046 45.9329 20.2135 45.8228 20.353 45.6841L24.028 42.1591C24.1706 42.0226 24.2837 41.8605 24.3609 41.682C24.4381 41.5035 24.4779 41.3123 24.4779 41.1192C24.4779 40.9259 24.4381 40.7347 24.3609 40.5562C24.2837 40.3778 24.1706 40.2158 24.028 40.0793L20.3285 36.5661Z" fill="#1D1C1D"/>
<path d="M18.7484 13.7356C18.3664 13.6876 17.9797 13.7831 17.6694 14.0021C17.359 14.221 17.1486 14.5465 17.0824 14.9106L16.6782 17.6248H13.0767C12.6868 17.6248 12.3129 17.7733 12.0373 18.0378C11.7615 18.3022 11.6067 18.6609 11.6067 19.0348C11.6067 19.4088 11.7615 19.7674 12.0373 20.0318C12.3129 20.2962 12.6868 20.4448 13.0767 20.4448H16.2494L15.4777 25.4503H11.9252C11.7217 25.4324 11.5165 25.4555 11.3228 25.5179C11.1291 25.5803 10.9511 25.6808 10.8002 25.813C10.6493 25.945 10.5287 26.106 10.4462 26.2853C10.3637 26.4646 10.3211 26.6584 10.3211 26.8544C10.3211 27.0504 10.3637 27.2443 10.4462 27.4236C10.5287 27.6029 10.6493 27.7637 10.8002 27.8959C10.9511 28.028 11.1291 28.1286 11.3228 28.191C11.5165 28.2534 11.7217 28.2765 11.9252 28.2586H15.0122L14.5344 31.7248C14.4813 32.0917 14.5796 32.464 14.8084 32.7625C15.0371 33.0609 15.3785 33.262 15.7594 33.3228H15.9799C16.3266 33.3219 16.6618 33.2036 16.9264 32.9885C17.1908 32.7735 17.3676 32.4756 17.4254 32.1478L18.0502 28.2586H21.9212L21.3577 31.7248C21.3045 32.0917 21.4029 32.464 21.6316 32.7625C21.8604 33.0609 22.2017 33.262 22.5827 33.3228H22.8032C23.1499 33.3219 23.485 33.2036 23.7496 32.9885C24.0141 32.7735 24.1908 32.4756 24.2487 32.1478L24.8367 28.3291H27.9114C28.2765 28.2971 28.616 28.1352 28.8631 27.8754C29.1104 27.6156 29.2473 27.2766 29.2473 26.9249C29.2473 26.5732 29.1104 26.2342 28.8631 25.9745C28.616 25.7147 28.2765 25.5528 27.9114 25.5208H25.2777L26.0372 20.5153H29.0752C29.4748 20.5153 29.858 20.363 30.1406 20.092C30.4231 19.8209 30.5819 19.4534 30.5819 19.0701C30.5819 18.6867 30.4231 18.3191 30.1406 18.0481C29.858 17.7771 29.4748 17.6248 29.0752 17.6248H26.5027L26.8579 15.3336C26.9111 14.9667 26.8128 14.5943 26.584 14.2958C26.3551 13.9973 26.0139 13.7963 25.6329 13.7356C25.2518 13.6848 24.8652 13.7795 24.5559 13.9992C24.2467 14.2188 24.0397 14.5461 23.9792 14.9106L23.5014 17.6248H19.6427L19.9857 15.3336C20.0417 14.9643 19.9431 14.5889 19.7111 14.2894C19.4793 13.9899 19.1331 13.7907 18.7484 13.7356ZM23.0727 20.4448L22.3132 25.4503H18.4422L19.2752 20.4448H23.0727Z" fill="#1D1C1D"/>
</svg>
